:version 1.10
:name ASF
:units
  mass 1
  length 1
  angle deg
:documentation
  ASF file generated by Kaydara
:root
  axis xyz
  order  tx ty tz rx ry rz
  position 0 0 0
  orientation 0 0 0
:bonedata
  begin
    id 1
    name lfemurDummy
    direction 0.61522 -0.761478 0.204097
    length 5.68318
    axis 0 -0 0 xyz
  end
  begin
    id 2
    name lfemur
    direction 0.34202 -0.939693 -5.84747e-008
    length 16.9147
    axis 0 -0 20 xyz
    dof rx ry rz
    limits( -inf , inf )
( -inf , inf )
( -inf , inf )

  end
  begin
    id 3
    name ltibia
    direction 0.34202 -0.939693 1.20839e-009
    length 18.0532
    axis 0 -0 20 xyz
    dof rz ry rx
    limits( -inf , inf )
( -inf , inf )
( -inf , inf )

  end
  begin
    id 4
    name lfoot
    direction 0.0841971 -0.23133 0.969225
    length 5.23822
    axis -90 7.62852e-016 20 xyz
    dof ry rx rz
    limits( -inf , inf )
( -inf , inf )
( -inf , inf )

  end
  begin
    id 5
    name ltoes
    direction 0 0 0
    length 0
    axis 0 0 0 xyz
    dof rz ry rx
    limits( -inf , inf )
( -inf , inf )
( -inf , inf )

  end
  begin
    id 6
    name rfemurDummy
    direction -0.625247 -0.75382 0.202044
    length 5.74091
    axis 0 -0 0 xyz
  end
  begin
    id 7
    name rfemur
    direction -0.34202 -0.939693 -1.47013e-008
    length 16.4922
    axis 0 -0 -20 xyz
    dof rx ry rz
    limits( -inf , inf )
( -inf , inf )
( -inf , inf )

  end
  begin
    id 8
    name rtibia
    direction -0.34202 -0.939693 -7.74345e-010
    length 18.2421
    axis 0 -0 -20 xyz
    dof rz ry rx
    limits( -inf , inf )
( -inf , inf )
( -inf , inf )

  end
  begin
    id 9
    name rfoot
    direction -0.124331 -0.341598 0.931586
    length 5.45787
    axis -90 -7.62852e-016 -20 xyz
    dof ry rx rz
    limits( -inf , inf )
( -inf , inf )
( -inf , inf )

  end
  begin
    id 10
    name rtoes
    direction 0 0 0
    length 0
    axis 0 0 0 xyz
    dof rz ry rx
    limits( -inf , inf )
( -inf , inf )
( -inf , inf )

  end
  begin
    id 11
    name lowerbackDummy
    direction 0 0 0
    length 0
    axis 0 -0 0 xyz
  end
  begin
    id 12
    name lowerback
    direction -0.0218484 0.994884 -0.0986304
    length 4.45607
    axis 0 -0 0 xyz
    dof rx ry rz
    limits( -inf , inf )
( -inf , inf )
( -inf , inf )

  end
  begin
    id 13
    name upperback
    direction -0.00973057 0.999717 -0.0217111
    length 4.47449
    axis 0 -0 0 xyz
    dof rx ry rz
    limits( -inf , inf )
( -inf , inf )
( -inf , inf )

  end
  begin
    id 14
    name thorax
    direction -0.000928171 0.999699 0.0245198
    length 4.50973
    axis 0 -0 0 xyz
    dof rx ry rz
    limits( -inf , inf )
( -inf , inf )
( -inf , inf )

  end
  begin
    id 15
    name rclavicle
    direction -0.9009 0.425937 -0.0834055
    length 7.28587
    axis 0 -0 0 xyz
    dof rx ry rz
    limits( -inf , inf )
( -inf , inf )
( -inf , inf )

  end
  begin
    id 16
    name rhumerus
    direction -1 -2.23604e-007 -1.42637e-007
    length 13.5704
    axis 180 30 90 xyz
    dof rx ry rz
    limits( -inf , inf )
( -inf , inf )
( -inf , inf )

  end
  begin
    id 17
    name rradius
    direction -1 5.68281e-008 -4.4952e-007
    length 8.06782
    axis 180 30 90 xyz
    dof rz ry rx
    limits( -inf , inf )
( -inf , inf )
( -inf , inf )

  end
  begin
    id 18
    name rwrist
    direction -1 1.51393e-007 1.38143e-007
    length 4.03391
    axis -90 -90 0 xyz
    dof rz rx ry
    limits( -inf , inf )
( -inf , inf )
( -inf , inf )

  end
  begin
    id 19
    name rthumb
    direction 0 0 0
    length 0
    axis 0 0 0 xyz
    dof ry rx rz
    limits( -inf , inf )
( -inf , inf )
( -inf , inf )

  end
  begin
    id 20
    name rhand
    direction -1 -3.34077e-007 -5.59631e-007
    length 1.29744
    axis -90 -90 0 xyz
    dof ry rx rz
    limits( -inf , inf )
( -inf , inf )
( -inf , inf )

  end
  begin
    id 21
    name rfingers
    direction 0 0 0
    length 0
    axis 0 0 0 xyz
    dof rz ry rx
    limits( -inf , inf )
( -inf , inf )
( -inf , inf )

  end
  begin
    id 22
    name lclavicle
    direction 0.940017 0.332249 -0.0773232
    length 8.29589
    axis 0 -0 0 xyz
    dof rx ry rz
    limits( -inf , inf )
( -inf , inf )
( -inf , inf )

  end
  begin
    id 23
    name lhumerus
    direction 1 7.41158e-008 -1.44768e-008
    length 12.0042
    axis 180 -30 -90 xyz
    dof rx ry rz
    limits( -inf , inf )
( -inf , inf )
( -inf , inf )

  end
  begin
    id 24
    name lradius
    direction 1 -1.32972e-007 3.10821e-007
    length 8.1902
    axis 180 -30 -90 xyz
    dof rz ry rx
    limits( -inf , inf )
( -inf , inf )
( -inf , inf )

  end
  begin
    id 25
    name lwrist
    direction 1 3.08957e-007 4.01394e-007
    length 4.09509
    axis -90 90 0 xyz
    dof rz rx ry
    limits( -inf , inf )
( -inf , inf )
( -inf , inf )

  end
  begin
    id 26
    name lthumb
    direction 0 0 0
    length 0
    axis 0 0 0 xyz
    dof ry rx rz
    limits( -inf , inf )
( -inf , inf )
( -inf , inf )

  end
  begin
    id 27
    name lhand
    direction 1 -1.64125e-007 -6.99514e-007
    length 1.37229
    axis -90 90 0 xyz
    dof ry rx rz
    limits( -inf , inf )
( -inf , inf )
( -inf , inf )

  end
  begin
    id 28
    name lfingers
    direction 0 0 0
    length 0
    axis 0 0 0 xyz
    dof rz ry rx
    limits( -inf , inf )
( -inf , inf )
( -inf , inf )

  end
  begin
    id 29
    name lowerneck
    direction -0.030798 0.998024 0.0547665
    length 3.93918
    axis 0 -0 0 xyz
    dof rx ry rz
    limits( -inf , inf )
( -inf , inf )
( -inf , inf )

  end
  begin
    id 30
    name upperneck
    direction 0.0531588 0.996611 -0.0627736
    length 3.95491
    axis 0 -0 0 xyz
    dof rx ry rz
    limits( -inf , inf )
( -inf , inf )
( -inf , inf )

  end
  begin
    id 31
    name head
    direction 0 0 0
    length 0
    axis 0 0 0 xyz
    dof rx ry rz
    limits( -inf , inf )
( -inf , inf )
( -inf , inf )

  end
:hierarchy
  begin
    root lfemurDummy rfemurDummy lowerbackDummy
    lfemurDummy lfemur
    lfemur ltibia
    ltibia lfoot
    lfoot ltoes
    rfemurDummy rfemur
    rfemur rtibia
    rtibia rfoot
    rfoot rtoes
    lowerbackDummy lowerback
    lowerback upperback
    upperback thorax
    thorax rclavicle lclavicle lowerneck
    rclavicle rhumerus
    rhumerus rradius
    rradius rwrist
    rwrist rthumb rhand
    rhand rfingers
    lclavicle lhumerus
    lhumerus lradius
    lradius lwrist
    lwrist lthumb lhand
    lhand lfingers
    lowerneck upperneck
    upperneck head
  end

:SAMPLES-PER-SECOND 30
:FULLY-SPECIFIED
:DEGREES
84
root  13.61182205 37.344889 2.751577745 -5.373001099 -43.26400757 2.052993774
lowerback  11.46640015 4.008110046 -0.3073369861
upperback  4.534910202 5.163589954 -1.064919949
thorax  -1.59916997 2.546410084 -1.576660037
lowerneck  -7.341720104 4.313049793 -6.015210152
upperneck  14.76360035 5.152390003 9.759929657
head  5.190400124 2.848229885 4.378640175
lclavicle  0 -9.442270133e-015 7.951389973e-016
lhumerus  34.69960022 -7.438059807 77.32730103
lradius  2.190161284e-031 -2.769844325e-031 128.3339996
lwrist  -1.412450015e-030 -0 22.87949944
lhand  -1.496451383e-031 -27.76390076 20.11240005
lfingers  90 7.125020027 -90
lthumb  89.89689403 5.08795885 91.16245106
rclavicle  0 -9.442270133e-015 7.951389973e-016
rhumerus  41.98300171 8.880029678 -73.42870331
rradius  -1.039353176e-031 3.374698359e-031 107.1179962
rwrist  7.062250077e-031 3.531125038e-031 -57.32730103
rhand  -7.920061211e-032 -33.2840004 9.303460121
rfingers  -90 -7.125020027 -90
rthumb  -92.93752616 -24.25625642 -97.11982154
rfemur  -5.387010098 4.910540104 3.541320086
rtibia  -0 0 61.88059998
rfoot  -0 -30.45730019 -17.60160065
rtoes  5.373923086 19.29304026 -105.8922705
lfemur  -30.9102993 -0.8728039861 0.1468279958
ltibia  -0 0 60.98130035
lfoot  -0 -9.481730461 -8.504329681
ltoes  -4.250644065 -19.5611806 -102.515957
85
root  13.56417739 37.43733384 2.715866584 -5.636993408 -42.3480072 2.462005615
lowerback  11.49260044 4.028079987 -0.2063280046
upperback  4.518650055 5.19949007 -1.176210046
thorax  -1.609789968 2.567029953 -1.754320025
lowerneck  -7.6667099 4.09758997 -6.583399773
upperneck  14.76939964 5.006859779 9.419130325
head  5.25564003 2.731839895 4.368330002
lclavicle  0 -9.442270133e-015 7.951389973e-016
lhumerus  33.97470093 -7.404950142 77.70600128
lradius  2.184791481e-031 -2.77408187e-031 128.2230072
lwrist  -7.062250077e-031 2.648343779e-031 22.69099998
lhand  -1.496451383e-031 -27.76390076 20.11240005
lfingers  90 7.125020027 -90
lthumb  89.89689403 5.08795885 91.16245106
rclavicle  0 -9.442270133e-015 7.951389973e-016
rhumerus  42.09629822 9.206669807 -72.86599731
rradius  -1.033167228e-031 3.376597328e-031 107.0130005
rwrist  7.062250077e-031 7.062250077e-031 -56.52590179
rhand  -7.920061211e-032 -33.2840004 9.303460121
rfingers  -90 -7.125020027 -90
rthumb  -92.93752616 -24.25625642 -97.11982154
rfemur  -4.898970127 5.111420155 3.492350101
rtibia  -0 0 61.89810181
rfoot  -0 -30.1942997 -17.58110046
rtoes  5.373923086 19.29304026 -105.8922705
lfemur  -31.20260048 -0.9075940251 -0.3412509859
ltibia  -0 0 61.17509842
lfoot  -0 -9.772379875 -7.414020061
ltoes  -4.250644065 -19.5611806 -102.515957
86
root  13.5262662 37.49222342 2.681288944 -5.841003418 -41.6519928 2.820999146
lowerback  11.40340042 4.045770168 -0.05547599867
upperback  4.505680084 5.240749836 -1.248479962
thorax  -1.553329945 2.591239929 -1.910820007
lowerneck  -7.927509785 3.979300022 -7.208439827
upperneck  14.875 4.968599796 9.266460419
head  5.324160099 2.674959898 4.432909966
lclavicle  0 -9.442270133e-015 7.951389973e-016
lhumerus  33.08710098 -7.28192997 77.97750092
lradius  2.182320865e-031 -2.776025878e-031 128.1719971
lwrist  -7.062250077e-031 -0 22.47400093
lhand  -1.496451383e-031 -27.76390076 20.11240005
lfingers  90 7.125020027 -90
lthumb  89.89689403 5.08795885 91.16245106
rclavicle  0 -9.442270133e-015 7.951389973e-016
rhumerus  42.06890106 9.659890175 -72.50350189
rradius  -1.026623755e-031 3.378592562e-031 106.9020004
rwrist  7.062250077e-031 5.296687558e-031 -55.86360168
rhand  -7.920061211e-032 -33.2840004 9.303460121
rfingers  -90 -7.125020027 -90
rthumb  -92.93752616 -24.25625642 -97.11982154
rfemur  -4.61247015 5.617259979 3.472939968
rtibia  -0 0 61.8348999
rfoot  -0 -30.01679993 -17.51339912
rtoes  5.373923086 19.29304026 -105.8922705
lfemur  -31.32620049 -0.9552239776 -0.7126539946
ltibia  -0 0 61.25880051
lfoot  8.954685337e-032 -9.656299591 -6.617760181
ltoes  -4.250644065 -19.5611806 -102.515957
87
root  13.4916666 37.50311183 2.658511147 -6.17300415 -41.19700623 3.242004395
lowerback  11.30889988 4.130980015 0.06017909944
upperback  4.471869946 5.368189812 -1.294860005
thorax  -1.518049955 2.657749891 -2.031919956
lowerneck  -8.041649818 3.906110048 -7.711200237
upperneck  15.15410042 4.947360039 9.191470146
head  5.420670033 2.633179903 4.503799915
lclavicle  0 -9.442270133e-015 7.951389973e-016
lhumerus  31.9904995 -7.268139839 78.21530151
lradius  2.183435554e-031 -2.775149224e-031 128.1950073
lwrist  -7.062250077e-031 -0 22.28619957
lhand  -1.496451383e-031 -27.76390076 20.11240005
lfingers  90 7.125020027 -90
lthumb  89.89689403 5.08795885 91.16245106
rclavicle  0 -9.442270133e-015 7.951389973e-016
rhumerus  41.78160095 10.07999992 -72.29589844
rradius  -1.026682691e-031 3.378574654e-031 106.9029999
rwrist  7.062250077e-031 1.765562519e-031 -55.41839981
rhand  -7.920061211e-032 -33.2840004 9.303460121
rfingers  -90 -7.125020027 -90
rthumb  -92.93752616 -24.25625642 -97.11982154
rfemur  -4.258399963 6.430419922 3.345429897
rtibia  -0 0 61.59260178
rfoot  -0 -30.12779999 -16.83720016
rtoes  5.373923086 19.29304026 -105.8922705
lfemur  -31.1060009 -0.9802119732 -1.078590035
ltibia  -0 0 61.16820145
lfoot  8.946656292e-032 -9.34926033 -6.125289917
ltoes  -4.250644065 -19.5611806 -102.515957
